<?xml version="1.0" encoding="UTF-8"?>
<svg id="LOGOTIPO" xmlns="http://www.w3.org/2000/svg" viewBox="0 0 3482.03 1072.27">
  <defs>
    <style>
      .cls-1 {
        stroke: #4ccd99;
        stroke-width: 17px;
      }

      .cls-1, .cls-2, .cls-3 {
        fill: none;
        stroke-miterlimit: 10;
      }

      .cls-2 {
        stroke-width: 68px;
      }

      .cls-2, .cls-3 {
        stroke: #ffc700;
      }

      .cls-4 {
        fill: #4ccd99;
      }

      .cls-5 {
        fill: #ffc700;
      }

      .cls-3 {
        stroke-width: 20px;
      }
    </style>
  </defs>
  <g id="ISOTIPO">
    <polyline class="cls-3" points="1298.67 251.34 1112.72 251.34 1112.72 165.7 961.11 317.32 1117.88 474.09 1117.88 398.04 1298.67 398.04"/>
    <polyline class="cls-1" points="1183.2 175.3 1369.16 175.3 1369.16 89.66 1520.77 241.27 1364 398.04 1364 322 1183.2 322"/>
  </g>
  <g id="LOGOTIPO1">
    <polyline id="T" class="cls-2" points="825.32 44.67 108.07 44.67 252.15 188.74 587.28 188.74 587.28 815.16 438.51 963.93 438.51 43.62"/>
    <g id="LETRAS">
      <path class="cls-4" d="m802.61,867.57c-29.2-.05-54.34-5.87-75.41-17.47-21.07-11.59-37.27-27.64-48.58-48.15-11.32-20.49-16.96-43.73-16.91-69.69.04-25.14,6.47-47.94,19.28-68.41,12.81-20.45,44.97-36.75,66.49-48.88,21.51-12.13,45.45-18.17,71.82-18.13,34.07.06,47.34,9.95,69.81,29.65,22.47,19.71,37.53,47.42,45.18,83.12l-199.05,68.4c7.28,11.78,16.89,20.92,28.85,27.43,11.95,6.51,25.23,9.78,39.83,9.8,10.95.02,21.49-1.88,31.64-5.72,10.14-3.83,19.68-8.99,28.62-15.46l27.9,45.67c-13,8.49-27.31,15.27-42.92,20.3-15.63,5.04-31.14,7.55-46.55,7.52Zm-79.47-126.07l141.83-51.46c-5.25-11.77-13.04-22.12-23.37-31.07-10.33-8.93-24.22-13.43-41.65-13.46-22.72-.04-41.29,7.74-55.7,23.32-14.43,15.59-21.66,35.55-21.7,59.88,0,4.47.18,8.73.59,12.77Z"/>
      <path class="cls-4" d="m1119.47,874.95c-25.24,0-48.11-5.35-68.64-16.04-20.53-10.69-36.79-26.4-48.76-47.15-11.98-20.74-17.96-46.51-17.96-77.3s6.31-55.7,18.92-77.3c12.61-21.59,44.29-38.27,65.04-50.04,20.74-11.76,43.3-17.64,67.68-17.64s45.33,5.03,61.59,15.08c16.25,10.05,14.08,22.13,23.49,36.25l19.49-40.42h59.66l-15,268.16h-64.79v-42.34c-4.71,5.99-11.77,12.83-21.17,20.53-9.41,7.7-20.75,14.33-34,19.89-13.26,5.55-28.45,8.34-45.55,8.34Zm17.32-53.25c21.38,0,39.45-5.66,54.21-17,14.75-11.33,24.48-26.83,29.19-46.51v-55.17c-5.13-17.53-15.51-32.08-31.11-43.62-15.62-11.55-33.68-17.32-54.21-17.32-15.4,0-29.51,3.75-42.34,11.23-12.83,7.49-23.09,17.96-30.79,31.44-7.7,13.47-11.55,28.98-11.55,46.51s3.95,32.51,11.87,46.19c7.91,13.69,18.49,24.49,31.76,32.4,13.25,7.92,27.59,11.87,42.98,11.87Z"/>
      <path class="cls-4" d="m1433.37,616.68l-10.19,45.68c9.21-17.63,37.13-31.35,53.77-41.17,16.62-9.81,35.56-14.73,56.8-14.73s37.57,4.71,51.39,14.12c13.82,9.42,7.54,22.54,11.15,39.37,10.41-16.83,38.64-29.95,54.67-39.37,16.02-9.41,33.06-14.12,51.09-14.12,24.84,0,44.48,6.91,58.9,20.74,14.42,13.82,6.83,31.96,7.24,54.39v186.32h-60.1v-163.48c-.4-12.82-3.31-23.44-8.72-31.86-5.41-8.41-15.13-13.02-29.15-13.82-14.42,0-27.15,4.41-38.17,13.22-11.03,8.82-19.64,20.24-25.85,34.26-6.22,14.03-9.52,29.06-9.92,45.08v116.6h-60.71v-163.48c-.4-12.82-3.51-23.44-9.32-31.86-5.81-8.41-15.73-13.02-29.75-13.82-14.03,0-26.55,4.41-37.57,13.22-11.03,8.82-19.53,20.34-25.54,34.56-6.01,14.23-9.02,29.36-9.02,45.38v116h-60.71l15-251.23h54.69Z"/>
      <path class="cls-4" d="m2722.46,281.87h76.13v585.7h-76.13V281.87Z"/>
      <path class="cls-4" d="m2998.23,874.95c-25.24,0-48.11-5.35-68.64-16.04-20.53-10.69-36.79-26.4-48.76-47.15-11.98-20.74-17.96-46.51-17.96-77.3s6.31-55.7,18.92-77.3c12.61-21.59,44.29-38.27,65.04-50.04,20.74-11.76,43.3-17.64,67.68-17.64s45.33,5.03,61.59,15.08c16.25,10.05,14.08,22.13,23.49,36.25l19.49-40.42h59.66l-15,268.16h-64.79v-42.34c-4.71,5.99-11.77,12.83-21.17,20.53-9.41,7.7-20.75,14.33-34,19.89-13.26,5.55-28.45,8.34-45.55,8.34Zm17.32-53.25c21.38,0,39.45-5.66,54.21-17,14.75-11.33,24.48-26.83,29.19-46.51v-55.17c-5.13-17.53-15.51-32.08-31.11-43.62-15.62-11.55-33.68-17.32-54.21-17.32-15.4,0-29.51,3.75-42.34,11.23-12.83,7.49-23.09,17.96-30.79,31.44-7.7,13.47-11.55,28.98-11.55,46.51s3.95,32.51,11.87,46.19c7.91,13.69,18.49,24.49,31.76,32.4,13.25,7.92,27.59,11.87,42.98,11.87Z"/>
      <path class="cls-4" d="m3291.79,609.25l4.3,47.87c8.59-17.59,21.88-31.6,39.89-42.04,18-10.43,38.86-15.65,62.6-15.65s43.97,7.06,59.53,21.17c15.54,14.11,23.52,32.63,23.93,58.54v189.63l-61.98-3v-168.15c-.41-13.09-4.3-23.83-11.66-32.22-7.36-8.38-18.82-12.78-34.37-13.19-21.69,0-39.8,9-54.31,27-14.53,18.01-21.79,41.12-21.79,69.35v117.21h-61.98v-256.52h55.85Z"/>
    </g>
    <path id="P" class="cls-5" d="m2650.2,279.24c-2.97-6.55-5.75-13.1-8.28-19.77-8.09-21.56-28.17-68.76-59.18-101.19,0,0-59.49-67.77-106.82-89.58,0,0-66.54-38.24-137.58-44.11h-443.26v208.75h-186.45v95.2h188.05v198.19h93.66v-192.75h145.92v369.13h-241.18v318.41h321.56v-238.03s62.33,1.92,102.18-6.12c7.23-1.48,14.46-2.97,21.81-4.02,30.89-4.51,116.02-19.89,161.92-58.07,0,0,74.44-50.16,115.46-124.79,0,0,48.06-80.87,50.04-160.5,0,0,5.62-98.41-17.85-150.74Zm-513.94,667.33h-163.1v-163.1h163.1v163.1Zm461.61-487.93c-4.51,60.67-57.02,136.47-57.02,136.47-49.55,76.98-147.59,108.79-147.59,108.79-65.18,30.89-179.96,17.24-181.57,17.24s3.34-467.54,3.34-470.63-224.69,0-224.69,0V88.96h275.41c49.18-1.54,94.15,5.31,94.15,5.31,74.63,17.05,134.99,67.03,134.99,67.03,56.9,39.29,90.07,135.48,90.07,135.48,27.86,60.48,12.91,161.86,12.91,161.86Z"/>
  </g>
</svg>